Coordinates
version=1
nRows=4
nColumns=65
inDegrees=yes

Units are S.I. units (second, meters, Newtons, ...)
If the header above contains a line with 'inDegrees', this indicates whether rotational values are in degrees (yes) or radians (no).

endheader
time	pelvis_tilt	pelvis_list	pelvis_rot	pelvis_tx	pelvis_ty	pelvis_tz	hip_flex_r	hip_add_r	hip_rot_r	pf_flex_r	pf_rot_r	pf_tilt_r	pf_tx_r	pf_ty_r	pf_tz_r	knee_flex_r	knee_add_r	knee_rot_r	knee_tx_r	knee_ty_r	knee_tz_r	meniscus_lateral_flex_r	meniscus_lateral_add_r	meniscus_lateral_rot_r	meniscus_lateral_tx_r	meniscus_lateral_ty_r	meniscus_lateral_tz_r	meniscus_medial_flex_r	meniscus_medial_add_r	meniscus_medial_rot_r	meniscus_medial_tx_r	meniscus_medial_ty_r	meniscus_medial_tz_r	ankle_flex_r	subt_angle_r	mtp_angle_r	hip_flex_l	hip_add_l	hip_rot_l	pf_l_r3	pf_l_tx	pf_l_ty	knee_flex_l	ankle_flex_l	subt_angle_l	mtp_angle_l	lumbar_ext	lumbar_latbend	lumbar_rot	neck_ext	neck_latbend	neck_rot	arm_add_r	arm_flex_r	arm_rot_r	elbow_flex_r	pro_sup_r	wrist_flex_r	arm_add_l	arm_flex_l	arm_rot_l	elbow_flex_l	pro_sup_l	wrist_flex_l
      1.18000000	     -5.78854023	      2.77179545	      0.36175622	     -0.08193811	      0.89103717	     -0.23193389	     30.53102098	     -1.98266108	     -7.68749657	     11.38376146	      0.12539490	     -3.60393266	      0.05314911	      0.00400357	      0.00453270	      5.24048855	      0.09719219	      0.90454503	      0.00263519	      0.00051915	     -0.00068447	      1.45835465	     -2.08025622	      1.79733512	     -0.00176860	     -0.00127376	     -0.00300166	      5.42782718	     -0.21187685	      1.06167124	      0.00539562	     -0.00016891	      0.00033769	      1.71265287	     -7.93247926	      0.00000000	     -9.64348688	     -4.03453981	     -6.77281227	      0.06513700	      0.04435000	     -0.41871200	     -0.06696147	      0.09929465	     -0.02113419	      0.00000000	    -10.39780180	     -4.04099906	     -4.91967943	      0.00000000	      0.00000000	      0.00000000	    -16.61483571	     11.30482802	     31.70051438	     12.58576197	     61.76159318	      0.00000000	    -28.10142491	     43.45030190	     24.19508817	     23.66244648	     60.25105290	      0.00000000
      1.18500000	     -5.71903652	      2.81189091	      0.59006504	     -0.07584302	      0.88947311	     -0.23158209	     31.03417027	     -1.97547846	     -7.64460874	     11.30375231	      0.12241763	     -3.64370269	      0.05315641	      0.00415578	      0.00454165	      5.05389841	      0.08485540	      0.88796624	      0.00261491	      0.00050989	     -0.00067159	      1.51882658	     -2.09010488	      1.85244227	     -0.00174114	     -0.00127232	     -0.00299456	      5.44701995	     -0.20614204	      1.06233758	      0.00541753	     -0.00017148	      0.00033741	      1.70794755	     -7.91556351	      0.00000000	    -10.09151983	     -3.99004419	     -6.73676806	      0.06513700	      0.04435000	     -0.41871200	     -0.06422072	      0.09937554	     -0.02107417	      0.00000000	    -10.41365383	     -4.04049809	     -4.91445490	      0.00000000	      0.00000000	      0.00000000	    -16.61459974	     11.30877919	     31.69855707	     12.58213024	     61.76130187	      0.00000000	    -28.11269959	     43.46787526	     24.19227306	     23.67175984	     60.25128669	      0.00000000
      1.19000000	     -5.82721829	      3.16092796	      1.10805869	     -0.06844915	      0.88792401	     -0.23172944	     29.82246416	     -2.28894034	     -7.10173774	      9.13139851	      0.18499204	     -4.37411919	      0.05309560	      0.00765213	      0.00475362	      0.58786061	     -0.13555358	      0.26761194	      0.00200093	      0.00027839	     -0.00040191	      3.15505599	     -2.24421303	      2.97812912	     -0.00086725	     -0.00117681	     -0.00274885	      5.91637761	      0.07168115	      1.03165660	      0.00592988	     -0.00030889	      0.00034486	      0.48156853	     -6.40620883	      0.00000000	    -10.74692423	     -4.17120431	     -7.50682797	      0.06513700	      0.04435000	     -0.41871200	     -0.07306939	      0.11961001	     -0.00583862	      0.00000000	    -10.04867760	     -5.13182780	     -5.09264491	      0.00000000	      0.00000000	      0.00000000	    -16.60914042	     10.73253353	     31.50969145	     12.02930592	     61.71539587	      0.00000000	    -29.45557900	     45.42457243	     23.82874005	     24.71791690	     60.27780566	      0.00000000
      1.19500000	     -5.79725499	      3.19377223	      1.23595948	     -0.06219045	      0.88623025	     -0.23169288	     30.31997172	     -2.36529670	     -7.04977784	      9.03606055	      0.19349181	     -4.39107237	      0.05308443	      0.00778192	      0.00476099	      0.41331378	     -0.14079531	      0.23380241	      0.00197268	      0.00026269	     -0.00038991	      3.22505041	     -2.24665922	      3.00890991	     -0.00082393	     -0.00117050	     -0.00273686	      5.93513544	      0.08948066	      1.02849733	      0.00594935	     -0.00031802	      0.00034585	      0.46502109	     -6.38354418	      0.00000000	    -11.18768055	     -4.12101986	     -7.47375950	      0.06513700	      0.04435000	     -0.41871200	     -0.07052820	      0.11991500	     -0.00560754	      0.00000000	    -10.11588983	     -5.05762236	     -5.11153544	      0.00000000	      0.00000000	      0.00000000	    -16.59175843	     10.71889364	     31.50700466	     12.02116468	     61.71461565	      0.00000000	    -29.46648924	     45.45547282	     23.82564371	     24.73925968	     60.27831157	      0.00000000
